<svg fill="none" height="12" viewBox="0 0 20 12" width="20" xmlns="http://www.w3.org/2000/svg"><path clip-rule="evenodd" d="m12.6215 0h-10.35292v.0470588h-.28235v.0470588h-.14118v.0470584h-.09412v.047059h-.09411v.047059h-.09412v.047059h-.09412v.047059h-.09412v.047059h-.04706v.047058h-.09411v.047059h-.04706v.047059h-.04706v.047059h-.04706v.047059h-.04706v.047059h-.047058v.047058h-.047058v.094118h-.047059v.094118h-.047059v.047058h-.047059v.094114h-.047059v.09412h-.047059v.09412h-.047058v.09412h-.047059v.14117h-.047059v9.08238h.047059v.1412h.047059v.1411h.047058v.0941h.047059v.0942h.047059v.0941h.047059v.047h.047059v.0942h.047059v.047h.047058v.0471h.047058v.0941h.04706v.0471h.09412v.047h.04706v.0471h.04706v.047h.04705v.0471h.04706v.047h.09412v.0471h.04706v.0471h.09412v.047h.09411v.0471h.18824v.047h.14118v.0471h10.91761v-.0471h.1883v-.047h.1411v-.0471h.1412v-.047h.0941v-.0471h.0942v-.0471h.0941v-.047h.047v-.0471h.0471v-.047h.0471v-.0471h.047v-.047h.0471v-.0471h.047v-.0471h.0471v-.047h.047v-.0471h.0471v-.0941h.0471v-.0471h.047v-.0941h.0471v-.0941h.047v-.0941h.0471v-.1412h.0471v-.1882h.047v-1.22355h.0471v-2.02353h-.0471v-2.87059h.0471v-.18824h-.0471v-.14117h.0471v-.2353h-.0471v-2.4h-.047v-.18823h-.0471v-.09412h-.0471v-.14118h-.047v-.094114h-.0471v-.047058h-.047v-.094118h-.0471v-.047059h-.0471v-.047059h-.047v-.094117h-.0471v-.047059h-.047v-.047059h-.0471v-.047059h-.0941v-.047059h-.0471v-.047058h-.047v-.047059h-.0941v-.047059h-.0471v-.047059h-.0941v-.047059h-.0941v-.047059h-.1412v-.0470584h-.1412v-.0470588h-.4706zm7.3568 1.27059h-.047v.04706h-.0941v.04706h-.0942v.04706h-.0941v.04705h-.0941v.04706h-.0941v.04706h-.0941v.04706h-.0941v.04706h-.0942v.04706h-.0941v.04706h-.047v.04706h-.0942v.04706h-.0941v.04705h-.0941v.04706h-.0941v.04706h-.0941v.04706h-.0941v.04706h-.0942v.04706h-.047v.04706h-.0941v.04706h-.0942v.04705h-.0941v.04706h-.0941v.04706h-.0941v.04706h-.0471v.04706h-.0941v.04706h-.0941v.04706h-.0941v.04706h-.0941v.04705h-.0942v.04706h-.0941v.04706h-.0941v.04706h-.0471v.04706h-.0941v.04706h-.0941v.04706h-.0941v.04706h-.0941v.04706h-.0941v.04705h-.0471v.04706h-.0941v.04706h-.0941v.04706h-.0942v.04706h-.0941v.04706h-.0941v.04706h-.0941v.04706h-.0941v.04706h-.0471v.09411h-.047v4.98824h.047v.09411h.0471v.04706h.1412v.04706h.047v.04706h.0941v.04706h.0941v.04706h.0942v.04706h.0941v.04706h.0941v.04706h.0941v.04705h.0941v.04706h.0942v.04706h.0941v.04706h.047v.04706h.0941v.04706h.0942v.04706h.0941v.04706h.0941v.04706h.0941v.04705h.0471v.04706h.0941v.04706h.0941v.04706h.0941v.04706h.0941v.04706h.0942v.04706h.0941v.04706h.0941v.04705h.0471v.04706h.0941v.04706h.0941v.04706h.0941v.04703h.0941v.0471h.0941v.047h.0942v.0471h.0941v.0471h.0941v.047h.0471v.0471h.0941v.047h.0941v.0471h.0941v.0471h.0941v.047h.0941v.0471h.0942v.047h.0941v.0471h.047v.0471h.0942v.047h.1411z" fill="none"/></svg>