<svg fill="none" height="17" viewBox="0 0 18 17" width="18" xmlns="http://www.w3.org/2000/svg"><path d="m16.8216.333334c-.3017 0-.6034.115052-.8334.345052l-.3502.350264 1.6666 1.66666.3503-.35026c.46-.46.46-1.20666 0-1.666664-.23-.23-.5317-.345052-.8333-.345052zm-14.82164 1.333336c-.73667 0-1.333334.59666-1.333334 1.33333v12c0 .7367.596664 1.3333 1.333334 1.3333h12.00004c.7366 0 1.3333-.5966 1.3333-1.3333v-8.44792l-1.3333 1.33334v7.11458h-12.00004v-9.33333h7.11458l3.99996-4zm12.69534.30468-7.0456 7.04558-.31641 1.98307 1.98308-.3164 7.04553-7.04558z" fill="none"/></svg>