<svg fill="none" height="16" viewBox="0 0 8 16" width="8" xmlns="http://www.w3.org/2000/svg"><path d="m6.6665 4.66662v6.93268c0 1.1133-.75266 2.1267-1.84333 2.35-1.49933.3073-2.82333-.836-2.82333-2.2827v-8.25798c0-.664.452-1.28133 1.10733-1.39.83467-.138 1.55933.50533 1.55933 1.31467v7.00001c0 .184-.15.3333-.33333.3333s-.33333-.1493-.33333-.3333v-5.66668c0-.368-.29867-.66667-.66667-.66667s-.66667.29867-.66667.66667v5.56868c0 .872.626 1.668 1.49334 1.756.99666.1013 1.84-.682 1.84-1.658v-6.88135c0-1.392-1.01534-2.637329-2.40067-2.771996-1.59-.154667-2.932666 1.095336-2.932666 2.653336v8.17001c0 1.914 1.395336 3.626 3.299336 3.812 2.186.214 4.034-1.506 4.034-3.6487v-6.99998c0-.368-.29867-.66667-.66667-.66667s-.66667.29867-.66667.66667z" fill="#fff"/></svg>