<svg fill="none" height="27" viewBox="0 0 68 27" width="68" xmlns="http://www.w3.org/2000/svg"><path d="m.752 3.504h4.096v22.496h-4.096zm22.7778 3.2c1.7706 0 3.456.23467 5.056.704v3.584c-1.7067-.448-3.36-.672-4.96-.672-1.472 0-2.9227.2667-4.352.8-1.4294.512-3.072 1.4933-4.928 2.944v11.936h-4v-18.656h4v3.328c1.472-1.49333 2.9333-2.528 4.384-3.104 1.472-.576 3.072-.864 4.8-.864zm9.3472-1.824v-4.48h4v4.48zm0 21.12v-18.656h4v18.656zm12.593-6.336c.1067.8747.4693 1.568 1.088 2.08.64.512 1.632.896 2.976 1.152 1.344.2347 3.168.352 5.472.352 2.2187 0 3.8933-.0853 5.024-.256 1.1307-.192 1.888-.4693 2.272-.832.384-.384.576-.9067.576-1.568 0-.5973-.2027-1.0347-.608-1.312-.384-.2987-1.152-.5227-2.304-.672-1.152-.1707-3.104-.3627-5.856-.576-3.0293-.2133-5.3653-.4693-7.008-.768-1.6213-.32-2.8693-.832-3.744-1.536-.8747-.7253-1.312-1.7813-1.312-3.168 0-2.1547 1.0773-3.66933 3.232-4.544s5.12-1.312 8.896-1.312c3.8187 0 6.784.42667 8.896 1.28 2.1333.85333 3.296 2.4427 3.488 4.768h-4.32c-.0853-.7253-.4267-1.28-1.024-1.664-.576-.384-1.4507-.6507-2.624-.8s-2.7947-.224-4.864-.224c-2.7307 0-4.64.192-5.728.576s-1.632.9387-1.632 1.664c0 .4907.2027.864.608 1.12s1.184.48 2.336.672c1.152.1707 2.9973.3627 5.536.576l1.44.128c2.7307.2347 4.8.4907 6.208.768 1.408.256 2.5387.7573 3.392 1.504.8747.7467 1.312 1.856 1.312 3.328 0 2.3467-.992 3.9787-2.976 4.896-1.984.896-4.9493 1.344-8.896 1.344-2.7947 0-5.2053-.1813-7.232-.544-2.0053-.3627-3.648-1.056-4.928-2.08-1.2587-1.024-1.9307-2.4747-2.016-4.352z" fill="#fff"/></svg>