<svg fill="none" height="12" viewBox="0 0 12 12" width="12" xmlns="http://www.w3.org/2000/svg"><path d="m5.9999.399902c-3.0926 0-5.599998 2.507398-5.599998 5.599998s2.507398 5.6 5.599998 5.6 5.6-2.5074 5.6-5.6-2.5074-5.599998-5.6-5.599998zm2.33334 6.066668h-1.86667v1.86667c0 .25806-.20907.46666-.46667.46666s-.46666-.2086-.46666-.46666v-1.86667h-1.86667c-.2576 0-.46667-.2086-.46667-.46667 0-.25806.20907-.46666.46667-.46666h1.86667v-1.86667c0-.25807.20906-.46667.46666-.46667s.46667.2086.46667.46667v1.86667h1.86667c.2576 0 .46666.2086.46666.46666 0 .25807-.20906.46667-.46666.46667z" fill="#000"/></svg>