<svg fill="none" height="13" viewBox="0 0 14 13" width="14" xmlns="http://www.w3.org/2000/svg"><path d="m13.5766 5.84588-12.52539-5.7771557c-.126128-.0581685-.266503-.0800765-.404825-.06317978-.138321.01689668-.268915.07190468-.376616.15863648-.107701.086731-.1880905.201628-.231833.331348-.04374246.129719-.0490436.26894-.0152875.401494l.8929905 3.501677 5.716021 2.10072-5.716021 2.10071-.8929905 3.50167c-.0343912.1327-.02953252.2722.0140076.4022.0435402.1301.1239619.2453.2318569.3321.107895.0869.238803.1419.377411.1586.138607.0166.279183-.0058.405286-.0646l12.52539-5.77714c.1266-.05832.2337-.15075.3086-.26648.075-.11573.1148-.24998.1148-.38706 0-.13709-.0398-.27134-.1148-.38707-.0749-.11573-.182-.20816-.3086-.26647z" fill="#fff" opacity=".7"/></svg>